<svg xmlns="http://www.w3.org/2000/svg" xmlns:xlink="http://www.w3.org/1999/xlink" xmlns:lucid="lucid" width="1229.23" height="1014.71"><g transform="translate(-260 1180)" lucid:page-tab-id="0_0"><path d="M0-1258.83h1870.87V64H0z" fill="#fff"/><path d="M888-1160c17.67 0 32 17.9 32 40s-14.33 40-32 40h-96c-17.67 0-32-17.9-32-40s14.33-40 32-40z" stroke="#000" fill="#ffbbb1"/><use xlink:href="#a" transform="matrix(1,0,0,1,765,-1155) translate(13.304938271604954 41.198611111111106)"/><use xlink:href="#b" transform="matrix(1,0,0,1,765,-1155) translate(64.84197530864199 41.198611111111106)"/><path d="M840.5-1002.17h-1v-14.34h1zm0-46.6h-1V-1079h1zM840.5-1079h-1v-.5h1zM840-987.4l-4.64-14.27h9.28z" fill="#333"/><path d="M840-985.8l-5.32-16.37h10.64zm-3.95-15.37l3.95 12.15 3.95-12.15z" fill="#333"/><use xlink:href="#c" transform="matrix(1,0,0,1,823.6052469135802,-1048.7777363279913) translate(0.004999999999999005 21.511111111111106)"/><path d="M888-985.3c17.67 0 32 17.92 32 40 0 22.1-14.33 40-32 40h-96c-17.67 0-32-17.9-32-40 0-22.08 14.33-40 32-40z" stroke="#333" fill="#ffbbb1"/><use xlink:href="#d" transform="matrix(1,0,0,1,765,-980.2888059893157) translate(28.728703703703708 41.198611111111106)"/><path d="M888-825.3c17.67 0 32 17.92 32 40 0 22.1-14.33 40-32 40h-96c-17.67 0-32-17.9-32-40 0-22.08 14.33-40 32-40z" stroke="#333" fill="#ffbbb1"/><use xlink:href="#e" transform="matrix(1,0,0,1,765,-820.2888059893157) translate(43.66697530864198 41.198611111111106)"/><path d="M628.24-698.23c2.07-3.9 7.34-7.06 11.76-7.06h80c4.42 0 9.7 3.17 11.76 7.07l24.48 45.88c2.07 3.9 2.07 10.22 0 14.12l-24.48 45.88c-2.07 3.9-7.34 7.06-11.76 7.06h-80c-4.42 0-9.7-3.15-11.76-7.05l-24.48-45.88c-2.07-3.9-2.07-10.22 0-14.12z" stroke="#333" fill="#ffdf71"/><use xlink:href="#f" transform="matrix(1,0,0,1,605,-700.2888059893157) translate(34.821049382716055 59.323611111111106)"/><path d="M948.24-698.76c2.07-3.9 7.34-7.05 11.76-7.05h80c4.42 0 9.7 3.15 11.76 7.04l24.48 45.9c2.07 3.9 2.07 10.2 0 14.1l-24.48 45.9c-2.07 3.9-7.34 7.05-11.76 7.05h-80c-4.42 0-9.7-3.17-11.76-7.07l-24.48-45.9c-2.07-3.88-2.07-10.2 0-14.1z" stroke="#333" fill="#ffdf71"/><use xlink:href="#g" transform="matrix(1,0,0,1,925,-700.8144551862301) translate(39.190493827160495 59.323611111111106)"/><path d="M840.5-842.17h-1v-14.1h1zm0-46.37h-1v-15.75h1z" fill="#333"/><path d="M840.5-904.28h-1v-.5h1zM840-827.4l-4.64-14.27h9.28z" fill="#333"/><path d="M840-825.8l-5.32-16.37h10.64zm-3.95-15.37l3.95 12.15 3.95-12.15z" fill="#333"/><use xlink:href="#h" transform="matrix(1,0,0,1,822.1487654320988,-888.5374421511113) translate(0.004999999999999005 21.511111111111106)"/><path d="M759-785.3h-67c-6.63 0-12 5.38-12 12v51.13" stroke="#333" fill="none"/><path d="M759.5-785.3l.02.5H759v-1h.53z" fill="#333"/><path d="M680-707.4l-4.64-14.27h9.27z" stroke="#333" fill="#333"/><path d="M921-785.3h66.47c6.63 0 12 5.38 12 12v50.6" stroke="#333" fill="none"/><path d="M921-784.8h-.53l.03-.48-.02-.5h.53z" fill="#333"/><path d="M999.47-707.93l-4.63-14.27h9.27z" stroke="#333" fill="#333"/><path d="M568-545.3c17.67 0 32 17.92 32 40 0 22.1-14.33 40-32 40h-96c-17.67 0-32-17.9-32-40 0-22.08 14.33-40 32-40z" stroke="#333" fill="#ffbbb1"/><use xlink:href="#i" transform="matrix(1,0,0,1,445,-540.2888059893157) translate(1.8398148148148294 41.198611111111106)"/><use xlink:href="#j" transform="matrix(1,0,0,1,445,-540.2888059893157) translate(54.87067901234568 41.198611111111106)"/><use xlink:href="#k" transform="matrix(1,0,0,1,445,-540.2888059893157) translate(84.00030864197531 41.198611111111106)"/><path d="M748-405.3c17.67 0 32 17.92 32 40 0 22.1-14.33 40-32 40h-96c-17.67 0-32-17.9-32-40 0-22.08 14.33-40 32-40z" stroke="#333" fill="#ffbbb1"/><use xlink:href="#l" transform="matrix(1,0,0,1,625,-400.28880598931573) translate(11.811111111111131 41.198611111111106)"/><use xlink:href="#m" transform="matrix(1,0,0,1,625,-400.28880598931573) translate(64.84197530864199 41.198611111111106)"/><path d="M353.6-300.5c3.53-2.64 9.27-2.64 12.8 0l67.2 50.4c3.53 2.66 3.53 6.96 0 9.6l-67.2 50.4c-3.53 2.66-9.27 2.66-12.8 0l-67.2-50.4c-3.53-2.64-3.53-6.94 0-9.6z" stroke="#333" fill="#99d2f2"/><use xlink:href="#n" transform="matrix(1,0,0,1,285,-300.28880598931573) translate(20.512654320987664 44.24444444444445)"/><use xlink:href="#o" transform="matrix(1,0,0,1,285,-300.28880598931573) translate(60.02438271604939 44.24444444444445)"/><use xlink:href="#p" transform="matrix(1,0,0,1,285,-300.28880598931573) translate(87.66018518518518 44.24444444444445)"/><use xlink:href="#q" transform="matrix(1,0,0,1,285,-300.28880598931573) translate(34.741358024691365 76.5111111111111)"/><path d="M573.6-300.5c3.53-2.64 9.27-2.64 12.8 0l67.2 50.4c3.53 2.66 3.53 6.96 0 9.6l-67.2 50.4c-3.53 2.66-9.27 2.66-12.8 0l-67.2-50.4c-3.53-2.64-3.53-6.94 0-9.6z" stroke="#333" fill="#99d2f2"/><use xlink:href="#r" transform="matrix(1,0,0,1,505,-300.28880598931573) translate(34.82104938271606 47.52111111111111)"/><use xlink:href="#s" transform="matrix(1,0,0,1,505,-300.28880598931573) translate(49.647283950617286 79.78777777777776)"/><path d="M813.6-300.5c3.53-2.64 9.27-2.64 12.8 0l67.2 50.4c3.53 2.66 3.53 6.96 0 9.6l-67.2 50.4c-3.53 2.66-9.27 2.66-12.8 0l-67.2-50.4c-3.53-2.64-3.53-6.94 0-9.6z" stroke="#333" fill="#99d2f2"/><use xlink:href="#t" transform="matrix(1,0,0,1,745,-300.28880598931573) translate(29.256543209876558 52.448611111111106)"/><use xlink:href="#u" transform="matrix(1,0,0,1,745,-300.28880598931573) translate(35.978765432098776 52.448611111111106)"/><use xlink:href="#v" transform="matrix(1,0,0,1,745,-300.28880598931573) translate(54.09141975308642 84.71527777777777)"/><path d="M601.27-645.3H532c-6.63 0-12 5.38-12 12v71.13" stroke="#333" fill="none"/><path d="M601.82-644.8h-.56v-1h.47z" fill="#333"/><path d="M520-547.4l-4.64-14.27h9.28z" stroke="#333" fill="#333"/><path d="M360.5-319.26h-1v-108.57h1zM439-504.8h-66.97l-3 .4-2.77 1.15-2.4 1.83-1.82 2.4-1.14 2.75-.4 3v33.44h-1v-33.5l.42-3.2 1.24-3 2-2.6 2.6-2 3-1.24 3.2-.42H439zM439.5-505.3l.02.5H439v-1h.53zM360-304.5l-4.64-14.26h9.28z" fill="#333"/><path d="M360-302.88l-5.32-16.38h10.64zm-3.95-15.38L360-306.1l3.95-12.16z" fill="#333"/><use xlink:href="#w" transform="matrix(1,0,0,1,342.2962962962963,-459.83179992369094) translate(0 21.333333333333332)"/><path d="M700.5-422.17h-1v-8.25h1zm-9.26-83.2l3 1.24 2.6 2 2 2.6 1.24 3 .42 3.2v30.9h-1v-30.83l-.4-3-1.14-2.77-1.83-2.4-2.4-1.82-2.75-1.14-3-.4H601v-1h87.03z" fill="#333"/><path d="M601-504.8h-.53l.03-.48-.02-.5h.53zM700-407.4l-4.64-14.27h9.28z" fill="#333"/><path d="M700-405.8l-5.32-16.37h10.64zm-3.95-15.37l3.95 12.15 3.95-12.15z" fill="#333"/><use xlink:href="#x" transform="matrix(1,0,0,1,683.7407407407408,-462.41966677712196) translate(0 21.333333333333332)"/><path d="M619-365.3h-27c-6.63 0-12 5.38-12 12v34.04" stroke="#333" fill="none"/><path d="M619.5-365.3l.02.5H619v-1h.53z" fill="#333"/><path d="M580-304.5l-4.64-14.26h9.28z" stroke="#333" fill="#333"/><path d="M781-365.3h27c6.63 0 12 5.38 12 12v34.04" stroke="#333" fill="none"/><path d="M781-364.8h-.53l.03-.48-.02-.5h.53z" fill="#333"/><path d="M820-304.5l-4.64-14.26h9.28z" stroke="#333" fill="#333"/><path d="M1188-500c17.67 0 32 17.9 32 40s-14.33 40-32 40h-96c-17.67 0-32-17.9-32-40s14.33-40 32-40z" stroke="#333" fill="#ffbbb1"/><use xlink:href="#y" transform="matrix(1,0,0,1,1065,-495) translate(20.58734567901235 41.198611111111106)"/><path d="M973.6-420.5c3.53-2.64 9.27-2.64 12.8 0l67.2 50.4c3.53 2.66 3.53 6.96 0 9.6l-67.2 50.4c-3.53 2.66-9.27 2.66-12.8 0l-67.2-50.4c-3.53-2.64-3.53-6.94 0-9.6z" stroke="#333" fill="#99d2f2"/><use xlink:href="#z" transform="matrix(1,0,0,1,905,-420.28880598931573) translate(43.928395061728395 44.24444444444445)"/><use xlink:href="#A" transform="matrix(1,0,0,1,905,-420.28880598931573) translate(27.309567901234573 76.5111111111111)"/><path d="M1293.6-420.5c3.53-2.64 9.27-2.64 12.8 0l67.2 50.4c3.53 2.66 3.53 6.96 0 9.6l-67.2 50.4c-3.53 2.66-9.27 2.66-12.8 0l-67.2-50.4c-3.53-2.64-3.53-6.94 0-9.6z" stroke="#333" fill="#99d2f2"/><use xlink:href="#t" transform="matrix(1,0,0,1,1225,-420.28880598931573) translate(17.151543209876557 44.24444444444445)"/><use xlink:href="#B" transform="matrix(1,0,0,1,1225,-420.28880598931573) translate(23.87376543209878 44.24444444444445)"/><use xlink:href="#C" transform="matrix(1,0,0,1,1225,-420.28880598931573) translate(63.3854938271605 44.24444444444445)"/><use xlink:href="#D" transform="matrix(1,0,0,1,1225,-420.28880598931573) translate(91.0212962962963 44.24444444444445)"/><use xlink:href="#E" transform="matrix(1,0,0,1,1225,-420.28880598931573) translate(36.9820987654321 76.5111111111111)"/><path d="M1078.73-645.8H1128c6.63 0 12 5.36 12 12v116.92" stroke="#333" fill="none"/><path d="M1078.74-645.3h-.47l-.1-1h.57z" fill="#333"/><path d="M1140-502.12l-4.64-14.26h9.28z" stroke="#333" fill="#333"/><path d="M1013.2-459.5h-21.17l-3 .4-2.77 1.14-2.4 1.83-1.82 2.4-1.14 2.75-.4 3v8.72h-1v-8.77l.42-3.2 1.24-3 2-2.6 2.6-2 3-1.25 3.2-.42h21.24zm45.8 0h-10.4v-1h10.4z" fill="#333"/><path d="M1059.5-460l.02.5h-.53v-1h.53zM980-424.5l-4.64-14.26h9.28z" fill="#333"/><path d="M980-422.88l-5.32-16.38h10.64zm-3.95-15.38L980-426.1l3.95-12.16z" fill="#333"/><use xlink:href="#w" transform="matrix(1,0,0,1,1013.2048708339601,-476) translate(0 21.333333333333332)"/><path d="M1291.24-460.08l3 1.24 2.6 2 2 2.6 1.24 3 .42 3.2v8.78h-1v-8.7l-.4-3.02-1.14-2.76-1.83-2.4-2.4-1.82-2.75-1.14-3-.4h-20.23v-1h20.28zm-70.24.58v-1h14.23v1z" fill="#333"/><path d="M1221-459.5h-.53l.03-.5-.02-.5h.53zM1300-424.5l-4.64-14.26h9.28z" fill="#333"/><path d="M1300-422.88l-5.32-16.38h10.64zm-3.95-15.38l3.95 12.15 3.95-12.16z" fill="#333"/><use xlink:href="#x" transform="matrix(1,0,0,1,1235.2342737957606,-476) translate(0 21.333333333333332)"/><path d="M954.48-944.3H921.5v-2h32.98zm66.52 0h-34v-2h34z" fill="#5e5e5e"/><path d="M921.53-944.3h-1.1l.07-.98-.03-1h1.06zM1036.26-945.3l-14.26 4.65v-9.27z" fill="#5e5e5e"/><path d="M1039.5-945.3l-18.5 6.02v-12.02zm-16.5 3.27l10.03-3.26-10.03-3.25z" fill="#5e5e5e"/><use xlink:href="#x" transform="matrix(1,0,0,1,954.4796980870636,-961.2888059893157) translate(0 21.333333333333332)"/><path d="M1168-985.3c17.67 0 32 17.92 32 40 0 22.1-14.33 40-32 40h-96c-17.67 0-32-17.9-32-40 0-22.08 14.33-40 32-40z" stroke="#333" fill="#ffbbb1"/><use xlink:href="#e" transform="matrix(1,0,0,1,1045,-980.2888059893157) translate(43.66697530864198 41.198611111111106)"/><path d="M1308.24-998.23c2.07-3.9 7.34-7.06 11.76-7.06h80c4.42 0 9.7 3.17 11.76 7.07l24.48 45.88c2.07 3.9 2.07 10.22 0 14.12l-24.48 45.88c-2.07 3.9-7.34 7.06-11.76 7.06h-80c-4.42 0-9.7-3.15-11.76-7.05l-24.48-45.88c-2.07-3.9-2.07-10.22 0-14.12z" stroke="#333" fill="#ffdf71"/><use xlink:href="#g" transform="matrix(1,0,0,1,1285,-1000.2888059893157) translate(39.190493827160495 59.323611111111106)"/><path d="M1201.5-945.3h61.77" stroke="#5e5e5e" stroke-width="2" fill="none"/><path d="M1201.53-944.3h-1.1l.07-.98-.03-1h1.06z" fill="#5e5e5e"/><path d="M1278.54-945.3l-14.27 4.65v-9.27z" stroke="#5e5e5e" stroke-width="2" fill="#5e5e5e"/><path d="M1408-825.3c17.67 0 32 17.92 32 40 0 22.1-14.33 40-32 40h-96c-17.67 0-32-17.9-32-40 0-22.08 14.33-40 32-40z" stroke="#333" fill="#ffbbb1"/><use xlink:href="#F" transform="matrix(1,0,0,1,1285,-820.2888059893157) translate(15.737407407407412 21.511111111111106)"/><use xlink:href="#G" transform="matrix(1,0,0,1,1285,-820.2888059893157) translate(65.63123456790123 21.511111111111106)"/><use xlink:href="#H" transform="matrix(1,0,0,1,1285,-820.2888059893157) translate(29.10716049382716 53.777777777777764)"/><use xlink:href="#I" transform="matrix(1,0,0,1,1285,-820.2888059893157) translate(107.4583950617284 53.777777777777764)"/><path d="M1360-883.8v39.5" stroke="#5e5e5e" stroke-width="2" fill="none"/><path d="M1361-883.76h-2v-1.03h2z" fill="#5e5e5e"/><path d="M1360-829.02l-4.64-14.27h9.28z" stroke="#5e5e5e" stroke-width="2" fill="#5e5e5e"/><path d="M1233.6-700.5c3.53-2.64 9.27-2.64 12.8 0l67.2 50.4c3.53 2.66 3.53 6.96 0 9.6l-67.2 50.4c-3.53 2.66-9.27 2.66-12.8 0l-67.2-50.4c-3.53-2.64-3.53-6.94 0-9.6z" stroke="#333" fill="#99d2f2"/><g><use xlink:href="#J" transform="matrix(1,0,0,1,1165,-700.2888059893157) translate(17.151543209876557 44.24444444444445)"/><use xlink:href="#K" transform="matrix(1,0,0,1,1165,-700.2888059893157) translate(23.87376543209878 44.24444444444445)"/><use xlink:href="#L" transform="matrix(1,0,0,1,1165,-700.2888059893157) translate(63.3854938271605 44.24444444444445)"/><use xlink:href="#p" transform="matrix(1,0,0,1,1165,-700.2888059893157) translate(91.0212962962963 44.24444444444445)"/><use xlink:href="#M" transform="matrix(1,0,0,1,1165,-700.2888059893157) translate(36.9820987654321 76.5111111111111)"/></g><path d="M1278.5-785.3H1246c-3.3 0-6 2.7-6 6v57.92" stroke="#5e5e5e" stroke-width="2" fill="none"/><path d="M1279.5-785.3l.03 1h-1.06v-2h1.1z" fill="#5e5e5e"/><path d="M1240-706.1l-4.64-14.28h9.28z" stroke="#5e5e5e" stroke-width="2" fill="#5e5e5e"/><path d="M1475.77-945.37l2.53 2.53.93 3.42v403.55l-.93 3.42-2.53 2.53-3.4.92h-289l-2.66.7-1.76 1.8-.72 2.63v4.87h-2v-5.13l.93-3.42 2.53-2.53 3.4-.92h289l2.66-.7 1.77-1.8.73-2.63v-403.03l-.72-2.64-1.76-1.77-2.65-.72h-32.87v-2h33.13z" fill="#5e5e5e"/><path d="M1439.25-944.3h-1.02l.06-.34-.17-1.65h1.12zM1177.22-503.74L1172.6-518h9.26z" fill="#5e5e5e"/><path d="M1177.22-500.5l-6-18.5h12zm-3.26-16.5l3.26 10.03 3.26-10.03zM837.55-645.37l2.53 2.53.92 3.42v104.47l.7 2.64 1.8 1.77 2.63.7h245.12l3.4.94 2.54 2.54.92 3.4v3.96h-2v-3.68l-.72-2.65-1.77-1.77-2.65-.72h-245.1l-3.43-.92-2.53-2.53-.92-3.4v-104.5l-.7-2.63-1.8-1.77-2.63-.72h-74.64v-2h74.9z" fill="#5e5e5e"/><path d="M759.25-644.3h-1.02l.06-.34-.17-1.65h1.12zM1097.12-503.74l-4.64-14.26h9.27z" fill="#5e5e5e"/><path d="M1097.12-500.5l-6.02-18.5h12.03zm-3.26-16.5l3.26 10.03 3.25-10.03z" fill="#5e5e5e"/><defs><path d="M-3 0l3-13 31-5 35-200-29-5 2-13h112l-2 13-31 5-16 87h86l16-87-30-5 2-13h113l-2 13-31 5-36 200 30 5-2 13H135l2-13 31-5 17-94H99L82-18l30 5-2 13H-3" id="N"/><path d="M4-56c-1-80 62-132 143-106 7-3 13-7 24-6L145-16l19 6-2 10h-61v-24C89-11 75 4 51 4 17 4 5-22 4-56zm116-90c-48-23-67 38-70 84-2 36 29 52 46 24 2-3 5-6 7-9" id="O"/><path d="M108-141c-17-26-77-2-45 26 22 19 57 24 59 63C125 7 47 13-2-6l8-46h12c-1 24 9 40 34 39 18-1 30-9 31-27-10-38-66-30-66-80 0-55 66-55 112-44l-8 42h-11" id="P"/><g id="a"><use transform="matrix(0.07469135802469135,0,0,0.07469135802469135,0,0)" xlink:href="#N"/><use transform="matrix(0.07469135802469135,0,0,0.07469135802469135,20.913580246913575,0)" xlink:href="#O"/><use transform="matrix(0.07469135802469135,0,0,0.07469135802469135,34.35802469135802,0)" xlink:href="#P"/></g><path d="M175-182c0-29-25-37-58-34l-15 82c43 3 73-9 73-48zm-3 111c0-40-32-46-73-44L82-19c49 4 90-1 90-52zm53 0C225 23 93-3-3 0l2-13 31-5 35-200-29-5 2-13c75 5 189-21 189 52 0 37-25 53-59 58 33 3 57 21 57 55" id="Q"/><path d="M58-16l21 4-2 12H8l41-234-16-4 2-12h64" id="R"/><path d="M120-226c12 13 19 47-13 43-9-4-16-11-16-24 0-43 33-66 76-66 45 0 75 22 75 67 0 63-68 79-66 150h-17c-8-69 43-89 50-150s-82-72-89-20zM142-8c0-13 12-24 25-24s24 11 24 24-11 25-24 25c-14 0-25-11-25-25" id="S"/><g id="b"><use transform="matrix(0.07469135802469135,0,0,0.07469135802469135,0,0)" xlink:href="#Q"/><use transform="matrix(0.07469135802469135,0,0,0.07469135802469135,17.925925925925924,0)" xlink:href="#O"/><use transform="matrix(0.07469135802469135,0,0,0.07469135802469135,31.370370370370367,0)" xlink:href="#R"/><use transform="matrix(0.07469135802469135,0,0,0.07469135802469135,38.8395061728395,0)" xlink:href="#R"/><use transform="matrix(0.07469135802469135,0,0,0.07469135802469135,46.30864197530863,0)" xlink:href="#S"/></g><path fill="#333" d="M215-218l-30-5 2-13h84l-3 13-31 5L199 0h-20L84-195 52-18l31 5-2 13H-3l2-13 31-5 35-200-29-5 2-13h76l77 157" id="T"/><path fill="#333" d="M75-14c36-8 43-53 45-96 1-23-4-40-22-42-35 9-46 53-46 96 0 21 6 40 23 42zm93-86C168-39 132 4 71 4 29 4 6-22 6-66c0-62 36-104 96-104 43 0 66 27 66 70" id="U"/><g id="c"><use transform="matrix(0.07469135802469135,0,0,0.07469135802469135,0,0)" xlink:href="#T"/><use transform="matrix(0.07469135802469135,0,0,0.07469135802469135,19.34506172839506,0)" xlink:href="#U"/></g><path fill="#333" d="M67-92c-6 74 69 96 125 60l13-39h15l-11 60C128 16 12 10 12-93c0-122 110-166 231-136l-9 59h-15v-34c-11-9-30-16-51-16-69 4-96 57-101 128" id="V"/><path fill="#333" d="M58-16l21 4-2 12H8l41-234-16-4 2-12h64" id="W"/><path fill="#333" d="M108-141c-17-26-77-2-45 26 22 19 57 24 59 63C125 7 47 13-2-6l8-46h12c-1 24 9 40 34 39 18-1 30-9 31-27-10-38-66-30-66-80 0-55 66-55 112-44l-8 42h-11" id="X"/><path fill="#333" d="M8-58c3-72 59-136 130-101 9 5 14 13 14 25 0 48-53 54-95 64-3 26 4 52 31 52 20 0 33-9 45-17l8 11C108 13 5 18 8-58zm101-78c-5-28-28-9-35 5-6 12-12 25-14 42 27-4 47-18 49-47" id="Y"/><path fill="#333" d="M62-57c-4 16-6 39 13 38 8 0 13-3 20-4l4 12C72 11 3 12 13-44l18-103H11l2-11 25-7 24-38h26l-7 38h28l-3 18H78" id="Z"/><path fill="#333" d="M40-230c50-15 127-14 127 47 0 51-35 69-80 79L76-69H58v-55c36-5 62-18 62-61 0-34-36-44-60-27l-11 34H33zM91-24C89-8 80 5 62 5S33-7 33-24s11-29 29-29 27 13 29 29" id="aa"/><g id="d"><use transform="matrix(0.07469135802469135,0,0,0.07469135802469135,0,0)" xlink:href="#V"/><use transform="matrix(0.07469135802469135,0,0,0.07469135802469135,17.925925925925924,0)" xlink:href="#W"/><use transform="matrix(0.07469135802469135,0,0,0.07469135802469135,25.395061728395056,0)" xlink:href="#U"/><use transform="matrix(0.07469135802469135,0,0,0.07469135802469135,38.8395061728395,0)" xlink:href="#X"/><use transform="matrix(0.07469135802469135,0,0,0.07469135802469135,49.29629629629629,0)" xlink:href="#Y"/><use transform="matrix(0.07469135802469135,0,0,0.07469135802469135,61.17222222222222,0)" xlink:href="#X"/><use transform="matrix(0.07469135802469135,0,0,0.07469135802469135,71.629012345679,0)" xlink:href="#Z"/><use transform="matrix(0.07469135802469135,0,0,0.07469135802469135,79.09814814814814,0)" xlink:href="#aa"/></g><path fill="#333" d="M130 0h-8L83-204 50-18l31 5-2 13H-5l2-13 31-5 36-200-30-5 3-13h86l29 154 84-154h94l-2 13-31 5-36 200 30 5-2 13H173l2-13 35-5 32-186" id="ab"/><path fill="#333" d="M98-25C87-11 72 4 49 4 17 4 5-21 4-54c-1-72 43-130 119-111l11-69-28-4 2-12h76L143-15l17 4-2 11h-58zm20-119c-46-28-68 37-68 82 0 34 24 52 43 25 18-25 15-73 25-107" id="ac"/><g id="e"><use transform="matrix(0.07469135802469135,0,0,0.07469135802469135,0,0)" xlink:href="#ab"/><use transform="matrix(0.07469135802469135,0,0,0.07469135802469135,23.90123456790123,0)" xlink:href="#U"/><use transform="matrix(0.07469135802469135,0,0,0.07469135802469135,37.34567901234567,0)" xlink:href="#ac"/><use transform="matrix(0.07469135802469135,0,0,0.07469135802469135,50.79012345679011,0)" xlink:href="#Y"/></g><path fill="#333" d="M83-20c80 9 114-41 114-116 0-55-25-82-80-80zm169-119C251-34 178 11 65 0H-3l2-13 32-5 35-200-29-5 2-13c105-2 214-6 213 97" id="ad"/><path fill="#333" d="M39-147H11l2-12 29-7c4-61 39-99 108-84l-7 39h-11c4-19-15-32-27-15-10 14-11 41-16 61h37l-3 18H86L47 77H0" id="ae"/><path fill="#333" d="M144-170c70 0 21 104 18 154l21 4-3 12h-68l22-127c-7-34-45-7-53 8C63-87 64-39 54 0H7l26-149-15-5 2-11h59l-2 31c16-20 34-36 67-36" id="af"/><g id="f"><use transform="matrix(0.07469135802469135,0,0,0.07469135802469135,0,0)" xlink:href="#ad"/><use transform="matrix(0.07469135802469135,0,0,0.07469135802469135,19.34506172839506,0)" xlink:href="#Y"/><use transform="matrix(0.07469135802469135,0,0,0.07469135802469135,31.220987654320982,0)" xlink:href="#ae"/><use transform="matrix(0.07469135802469135,0,0,0.07469135802469135,40.109259259259254,0)" xlink:href="#Y"/><use transform="matrix(0.07469135802469135,0,0,0.07469135802469135,51.98518518518517,0)" xlink:href="#af"/><use transform="matrix(0.07469135802469135,0,0,0.07469135802469135,66.92345679012344,0)" xlink:href="#ac"/></g><path fill="#333" d="M53-13L51 0h-70l3-13 18-5 117-220h43l44 220 19 5-2 13h-97l3-13 24-5-11-61H59L27-18zm68-184L69-98h70" id="ag"/><path fill="#333" d="M4-56c-1-80 62-132 143-106 7-3 13-7 24-6L145-16l19 6-2 10h-61v-24C89-11 75 4 51 4 17 4 5-22 4-56zm116-90c-48-23-67 38-70 84-2 36 29 52 46 24 2-3 5-6 7-9" id="ah"/><path fill="#333" d="M135-24C103 15 5 16 5-58c0-84 66-131 150-104l-9 51h-13c0-23-2-44-28-41-39 5-49 47-53 92-4 49 52 49 76 25" id="ai"/><path fill="#333" d="M68-89l62-61-15-4 2-11h60l-2 11c-29 5-39 30-59 44l39 94 14 4-1 12h-56L83-80 64-67 52 0H5l41-234-16-4 2-12h64" id="aj"/><g id="g"><use transform="matrix(0.07469135802469135,0,0,0.07469135802469135,0,0)" xlink:href="#ag"/><use transform="matrix(0.07469135802469135,0,0,0.07469135802469135,17.925925925925924,0)" xlink:href="#Z"/><use transform="matrix(0.07469135802469135,0,0,0.07469135802469135,25.395061728395056,0)" xlink:href="#Z"/><use transform="matrix(0.07469135802469135,0,0,0.07469135802469135,32.86419753086419,0)" xlink:href="#ah"/><use transform="matrix(0.07469135802469135,0,0,0.07469135802469135,46.30864197530863,0)" xlink:href="#ai"/><use transform="matrix(0.07469135802469135,0,0,0.07469135802469135,58.18456790123456,0)" xlink:href="#aj"/></g><path fill="#333" d="M137-96l-14 78 37 5-2 13H31l2-13 38-5 14-77-41-123-26-5 3-13h112l-3 13-32 5 31 97 64-97-28-5 2-13h81l-3 13-26 5" id="ak"/><g id="h"><use transform="matrix(0.07469135802469135,0,0,0.07469135802469135,0,0)" xlink:href="#ak"/><use transform="matrix(0.07469135802469135,0,0,0.07469135802469135,13.36975308641975,0)" xlink:href="#Y"/><use transform="matrix(0.07469135802469135,0,0,0.07469135802469135,25.245679012345676,0)" xlink:href="#X"/></g><path fill="#333" d="M175-182c0-29-25-37-58-34l-15 82c43 3 73-9 73-48zm-3 111c0-40-32-46-73-44L82-19c49 4 90-1 90-52zm53 0C225 23 93-3-3 0l2-13 31-5 35-200-29-5 2-13c75 5 189-21 189 52 0 37-25 53-59 58 33 3 57 21 57 55" id="al"/><g id="i"><use transform="matrix(0.07469135802469135,0,0,0.07469135802469135,0,0)" xlink:href="#al"/><use transform="matrix(0.07469135802469135,0,0,0.07469135802469135,17.925925925925924,0)" xlink:href="#ah"/><use transform="matrix(0.07469135802469135,0,0,0.07469135802469135,31.370370370370367,0)" xlink:href="#W"/><use transform="matrix(0.07469135802469135,0,0,0.07469135802469135,38.8395061728395,0)" xlink:href="#W"/></g><path fill="#333" d="M59-16l21 4-2 12H9l27-149-16-5 1-11h65zm39-207c0 38-54 32-54 0 0-16 10-27 28-27 17 0 26 11 26 27" id="am"/><g id="j"><use transform="matrix(0.07469135802469135,0,0,0.07469135802469135,0,0)" xlink:href="#am"/><use transform="matrix(0.07469135802469135,0,0,0.07469135802469135,7.469135802469134,0)" xlink:href="#af"/></g><path fill="#333" d="M-10 0l1-9 91-140c-17 0-35-1-45 6l-10 27H14l9-49h116l-2 9L46-16c20 1 39-1 52-8l15-31h12L112 0H-10" id="an"/><g id="k"><use transform="matrix(0.07469135802469135,0,0,0.07469135802469135,0,0)" xlink:href="#an"/><use transform="matrix(0.07469135802469135,0,0,0.07469135802469135,10.456790123456788,0)" xlink:href="#U"/><use transform="matrix(0.07469135802469135,0,0,0.07469135802469135,23.90123456790123,0)" xlink:href="#af"/><use transform="matrix(0.07469135802469135,0,0,0.07469135802469135,38.8395061728395,0)" xlink:href="#Y"/><use transform="matrix(0.07469135802469135,0,0,0.07469135802469135,50.71543209876541,0)" xlink:href="#aa"/></g><g id="l"><use transform="matrix(0.07469135802469135,0,0,0.07469135802469135,0,0)" xlink:href="#V"/><use transform="matrix(0.07469135802469135,0,0,0.07469135802469135,17.925925925925924,0)" xlink:href="#ah"/><use transform="matrix(0.07469135802469135,0,0,0.07469135802469135,31.370370370370367,0)" xlink:href="#af"/></g><path fill="#333" d="M124-170c31 0 45 25 45 59C170-40 123 20 52-2l-9 63 28 4-2 12h-95l2-12 19-4 37-211-17-5 2-10h61l-1 24c11-15 25-29 47-29zM57-22c45 27 66-36 66-81 0-26-13-53-34-33-5 4-10 9-15 16" id="ao"/><path fill="#333" d="M120-226c12 13 19 47-13 43-9-4-16-11-16-24 0-43 33-66 76-66 45 0 75 22 75 67 0 63-68 79-66 150h-17c-8-69 43-89 50-150s-82-72-89-20zM142-8c0-13 12-24 25-24s24 11 24 24-11 25-24 25c-14 0-25-11-25-25" id="ap"/><g id="m"><use transform="matrix(0.07469135802469135,0,0,0.07469135802469135,0,0)" xlink:href="#ao"/><use transform="matrix(0.07469135802469135,0,0,0.07469135802469135,13.444444444444443,0)" xlink:href="#ah"/><use transform="matrix(0.07469135802469135,0,0,0.07469135802469135,26.888888888888886,0)" xlink:href="#X"/><use transform="matrix(0.07469135802469135,0,0,0.07469135802469135,37.34567901234567,0)" xlink:href="#X"/><use transform="matrix(0.07469135802469135,0,0,0.07469135802469135,47.802469135802454,0)" xlink:href="#ap"/></g><path fill="#333" d="M216-12C132 16 12 13 12-92c0-124 113-169 234-135l-10 54h-15l1-31c-14-10-32-18-57-16-68 5-95 58-98 132-3 60 43 88 99 66l12-67-29-6 2-12h105l-2 12-24 6" id="aq"/><g id="n"><use transform="matrix(0.07469135802469135,0,0,0.07469135802469135,0,0)" xlink:href="#aq"/><use transform="matrix(0.07469135802469135,0,0,0.07469135802469135,19.34506172839506,0)" xlink:href="#U"/></g><g id="o"><use transform="matrix(0.07469135802469135,0,0,0.07469135802469135,0,0)" xlink:href="#Z"/><use transform="matrix(0.07469135802469135,0,0,0.07469135802469135,7.469135802469134,0)" xlink:href="#U"/></g><path fill="#333" d="M54-22c43 30 69-33 69-81 0-34-25-52-44-25-18 25-15 72-25 106zm115-89C172-18 95 27 5-8l40-226-17-4 2-12h65L74-140c11-15 26-30 49-30 33 0 45 24 46 59" id="ar"/><g id="p"><use transform="matrix(0.07469135802469135,0,0,0.07469135802469135,0,0)" xlink:href="#ar"/><use transform="matrix(0.07469135802469135,0,0,0.07469135802469135,13.444444444444443,0)" xlink:href="#ah"/><use transform="matrix(0.07469135802469135,0,0,0.07469135802469135,26.888888888888886,0)" xlink:href="#W"/><use transform="matrix(0.07469135802469135,0,0,0.07469135802469135,34.35802469135802,0)" xlink:href="#W"/></g><path fill="#333" d="M128-140c85 34 48 161-52 144C49 5 24-2 7-9l11-63h15v38c24 36 125 19 95-37-22-41-94-36-94-101 0-71 88-73 151-59l-10 56h-15l-2-34c-26-23-99-7-75 36 9 16 30 23 45 33" id="as"/><g id="q"><use transform="matrix(0.07469135802469135,0,0,0.07469135802469135,0,0)" xlink:href="#as"/><use transform="matrix(0.07469135802469135,0,0,0.07469135802469135,14.938271604938269,0)" xlink:href="#ao"/><use transform="matrix(0.07469135802469135,0,0,0.07469135802469135,28.38271604938271,0)" xlink:href="#Y"/><use transform="matrix(0.07469135802469135,0,0,0.07469135802469135,40.258641975308635,0)" xlink:href="#ai"/><use transform="matrix(0.07469135802469135,0,0,0.07469135802469135,52.13456790123456,0)" xlink:href="#am"/><use transform="matrix(0.07469135802469135,0,0,0.07469135802469135,59.603703703703694,0)" xlink:href="#ah"/><use transform="matrix(0.07469135802469135,0,0,0.07469135802469135,73.04814814814813,0)" xlink:href="#W"/></g><g id="r"><use transform="matrix(0.07469135802469135,0,0,0.07469135802469135,0,0)" xlink:href="#ad"/><use transform="matrix(0.07469135802469135,0,0,0.07469135802469135,19.34506172839506,0)" xlink:href="#Y"/><use transform="matrix(0.07469135802469135,0,0,0.07469135802469135,31.220987654320982,0)" xlink:href="#ae"/><use transform="matrix(0.07469135802469135,0,0,0.07469135802469135,40.109259259259254,0)" xlink:href="#Y"/><use transform="matrix(0.07469135802469135,0,0,0.07469135802469135,51.98518518518517,0)" xlink:href="#af"/><use transform="matrix(0.07469135802469135,0,0,0.07469135802469135,66.92345679012344,0)" xlink:href="#ac"/></g><path fill="#333" d="M113-112c63 10 84-104 17-104h-12L99-112h14zm109-61c0 66-54 85-126 81L82-18l39 5-2 13H0l2-13 28-5 36-200-30-5 2-13c79 3 184-17 184 63" id="at"/><g id="s"><use transform="matrix(0.07469135802469135,0,0,0.07469135802469135,0,0)" xlink:href="#at"/><use transform="matrix(0.07469135802469135,0,0,0.07469135802469135,16.357407407407404,0)" xlink:href="#ah"/><use transform="matrix(0.07469135802469135,0,0,0.07469135802469135,29.801851851851847,0)" xlink:href="#X"/><use transform="matrix(0.07469135802469135,0,0,0.07469135802469135,40.258641975308635,0)" xlink:href="#X"/></g><path fill="#333" d="M223-176c0 42-25 62-58 71l36 87 25 5-2 13h-70l-37-100H97L82-18l30 5-2 13H-1l3-13 28-5 36-200-30-5 3-13c77 4 183-20 184 60zm-51 3c1-33-18-46-54-43l-18 97c43 2 70-15 72-54" id="au"/><path fill="#333" d="M118-165c22 0 57-7 42 26-24 52-60 95-88 143H50L14-150l-11-4 2-11h53L84-50c15-29 42-50 47-87 2-11-6-15-15-17" id="av"/><g id="u"><use transform="matrix(0.07469135802469135,0,0,0.07469135802469135,0,0)" xlink:href="#au"/><use transform="matrix(0.07469135802469135,0,0,0.07469135802469135,17.925925925925924,0)" xlink:href="#Y"/><use transform="matrix(0.07469135802469135,0,0,0.07469135802469135,29.801851851851847,0)" xlink:href="#ai"/><use transform="matrix(0.07469135802469135,0,0,0.07469135802469135,41.67777777777777,0)" xlink:href="#Y"/><use transform="matrix(0.07469135802469135,0,0,0.07469135802469135,53.55370370370369,0)" xlink:href="#am"/><use transform="matrix(0.07469135802469135,0,0,0.07469135802469135,61.02283950617282,0)" xlink:href="#av"/><use transform="matrix(0.07469135802469135,0,0,0.07469135802469135,72.89876543209874,0)" xlink:href="#Y"/></g><g id="v"><use transform="matrix(0.07469135802469135,0,0,0.07469135802469135,0,0)" xlink:href="#ar"/><use transform="matrix(0.07469135802469135,0,0,0.07469135802469135,13.444444444444443,0)" xlink:href="#ah"/><use transform="matrix(0.07469135802469135,0,0,0.07469135802469135,26.888888888888886,0)" xlink:href="#W"/><use transform="matrix(0.07469135802469135,0,0,0.07469135802469135,34.35802469135802,0)" xlink:href="#W"/></g><g id="w"><use transform="matrix(0.07407407407407407,0,0,0.07407407407407407,0,0)" xlink:href="#ak"/><use transform="matrix(0.07407407407407407,0,0,0.07407407407407407,13.259259259259258,0)" xlink:href="#Y"/><use transform="matrix(0.07407407407407407,0,0,0.07407407407407407,25.037037037037038,0)" xlink:href="#X"/></g><g id="x"><use transform="matrix(0.07407407407407407,0,0,0.07407407407407407,0,0)" xlink:href="#T"/><use transform="matrix(0.07407407407407407,0,0,0.07407407407407407,19.185185185185183,0)" xlink:href="#U"/></g><path fill="#333" d="M115-15c62 0 82-68 82-133 0-40-13-70-51-72-60 9-80 70-80 135 0 39 12 70 49 70zm135-128C250-54 203 4 112 4 52 4 13-31 13-92c0-89 47-146 137-146 61 0 100 34 100 95" id="aw"/><g id="y"><use transform="matrix(0.07469135802469135,0,0,0.07469135802469135,0,0)" xlink:href="#aw"/><use transform="matrix(0.07469135802469135,0,0,0.07469135802469135,19.34506172839506,0)" xlink:href="#ar"/><use transform="matrix(0.07469135802469135,0,0,0.07469135802469135,32.7895061728395,0)" xlink:href="#X"/><use transform="matrix(0.07469135802469135,0,0,0.07469135802469135,43.2462962962963,0)" xlink:href="#Z"/><use transform="matrix(0.07469135802469135,0,0,0.07469135802469135,50.715432098765426,0)" xlink:href="#ah"/><use transform="matrix(0.07469135802469135,0,0,0.07469135802469135,64.15987654320986,0)" xlink:href="#ai"/><use transform="matrix(0.07469135802469135,0,0,0.07469135802469135,76.03580246913579,0)" xlink:href="#W"/><use transform="matrix(0.07469135802469135,0,0,0.07469135802469135,83.50493827160493,0)" xlink:href="#Y"/><use transform="matrix(0.07469135802469135,0,0,0.07469135802469135,95.38086419753085,0)" xlink:href="#aa"/></g><g id="z"><use transform="matrix(0.07469135802469135,0,0,0.07469135802469135,0,0)" xlink:href="#ag"/><use transform="matrix(0.07469135802469135,0,0,0.07469135802469135,15.909259259259258,0)" xlink:href="#av"/><use transform="matrix(0.07469135802469135,0,0,0.07469135802469135,27.78518518518518,0)" xlink:href="#U"/><use transform="matrix(0.07469135802469135,0,0,0.07469135802469135,41.229629629629635,0)" xlink:href="#am"/><use transform="matrix(0.07469135802469135,0,0,0.07469135802469135,48.69876543209876,0)" xlink:href="#ac"/></g><g id="A"><use transform="matrix(0.07469135802469135,0,0,0.07469135802469135,0,0)" xlink:href="#aw"/><use transform="matrix(0.07469135802469135,0,0,0.07469135802469135,19.34506172839506,0)" xlink:href="#ar"/><use transform="matrix(0.07469135802469135,0,0,0.07469135802469135,32.7895061728395,0)" xlink:href="#X"/><use transform="matrix(0.07469135802469135,0,0,0.07469135802469135,43.2462962962963,0)" xlink:href="#Z"/><use transform="matrix(0.07469135802469135,0,0,0.07469135802469135,50.715432098765426,0)" xlink:href="#ah"/><use transform="matrix(0.07469135802469135,0,0,0.07469135802469135,64.15987654320986,0)" xlink:href="#ai"/><use transform="matrix(0.07469135802469135,0,0,0.07469135802469135,76.03580246913579,0)" xlink:href="#W"/><use transform="matrix(0.07469135802469135,0,0,0.07469135802469135,83.50493827160493,0)" xlink:href="#Y"/></g><g id="B"><use transform="matrix(0.07469135802469135,0,0,0.07469135802469135,0,0)" xlink:href="#aq"/><use transform="matrix(0.07469135802469135,0,0,0.07469135802469135,19.34506172839506,0)" xlink:href="#U"/></g><g id="C"><use transform="matrix(0.07469135802469135,0,0,0.07469135802469135,0,0)" xlink:href="#Z"/><use transform="matrix(0.07469135802469135,0,0,0.07469135802469135,7.469135802469134,0)" xlink:href="#U"/></g><g id="D"><use transform="matrix(0.07469135802469135,0,0,0.07469135802469135,0,0)" xlink:href="#ar"/><use transform="matrix(0.07469135802469135,0,0,0.07469135802469135,13.444444444444443,0)" xlink:href="#ah"/><use transform="matrix(0.07469135802469135,0,0,0.07469135802469135,26.888888888888886,0)" xlink:href="#W"/><use transform="matrix(0.07469135802469135,0,0,0.07469135802469135,34.35802469135802,0)" xlink:href="#W"/></g><g id="E"><use transform="matrix(0.07469135802469135,0,0,0.07469135802469135,0,0)" xlink:href="#X"/><use transform="matrix(0.07469135802469135,0,0,0.07469135802469135,10.456790123456788,0)" xlink:href="#ao"/><use transform="matrix(0.07469135802469135,0,0,0.07469135802469135,23.90123456790123,0)" xlink:href="#Y"/><use transform="matrix(0.07469135802469135,0,0,0.07469135802469135,35.777160493827154,0)" xlink:href="#ai"/><use transform="matrix(0.07469135802469135,0,0,0.07469135802469135,47.65308641975308,0)" xlink:href="#am"/><use transform="matrix(0.07469135802469135,0,0,0.07469135802469135,55.12222222222221,0)" xlink:href="#ah"/><use transform="matrix(0.07469135802469135,0,0,0.07469135802469135,68.56666666666666,0)" xlink:href="#W"/></g><path fill="#333" d="M29 0l2-13 39-5 35-199-50 3-14 44H26l12-66h194l-12 66h-15l2-44-50-3-35 199 36 5-2 13H29" id="ax"/><path fill="#333" d="M144-170c70 0 20 103 18 154l20 4-2 12h-68l22-127c-6-34-44-7-53 8C63-88 64-39 54 0H7l41-234-16-4 2-12h64L77-135c16-19 35-35 67-35" id="ay"/><g id="F"><use transform="matrix(0.07469135802469135,0,0,0.07469135802469135,0,0)" xlink:href="#ax"/><use transform="matrix(0.07469135802469135,0,0,0.07469135802469135,16.357407407407404,0)" xlink:href="#ay"/><use transform="matrix(0.07469135802469135,0,0,0.07469135802469135,31.295679012345673,0)" xlink:href="#Y"/></g><g id="G"><use transform="matrix(0.07469135802469135,0,0,0.07469135802469135,0,0)" xlink:href="#V"/><use transform="matrix(0.07469135802469135,0,0,0.07469135802469135,17.925925925925924,0)" xlink:href="#W"/><use transform="matrix(0.07469135802469135,0,0,0.07469135802469135,25.395061728395056,0)" xlink:href="#U"/><use transform="matrix(0.07469135802469135,0,0,0.07469135802469135,38.8395061728395,0)" xlink:href="#X"/><use transform="matrix(0.07469135802469135,0,0,0.07469135802469135,49.29629629629629,0)" xlink:href="#Y"/><use transform="matrix(0.07469135802469135,0,0,0.07469135802469135,61.17222222222222,0)" xlink:href="#Z"/></g><g id="H"><use transform="matrix(0.07469135802469135,0,0,0.07469135802469135,0,0)" xlink:href="#ag"/><use transform="matrix(0.07469135802469135,0,0,0.07469135802469135,17.925925925925924,0)" xlink:href="#Z"/><use transform="matrix(0.07469135802469135,0,0,0.07469135802469135,25.395061728395056,0)" xlink:href="#Z"/><use transform="matrix(0.07469135802469135,0,0,0.07469135802469135,32.86419753086419,0)" xlink:href="#ah"/><use transform="matrix(0.07469135802469135,0,0,0.07469135802469135,46.30864197530863,0)" xlink:href="#ai"/><use transform="matrix(0.07469135802469135,0,0,0.07469135802469135,58.18456790123456,0)" xlink:href="#aj"/></g><use transform="matrix(0.07469135802469135,0,0,0.07469135802469135,0,0)" xlink:href="#aa" id="I"/><g id="K"><use transform="matrix(0.07469135802469135,0,0,0.07469135802469135,0,0)" xlink:href="#aq"/><use transform="matrix(0.07469135802469135,0,0,0.07469135802469135,19.34506172839506,0)" xlink:href="#U"/></g><g id="L"><use transform="matrix(0.07469135802469135,0,0,0.07469135802469135,0,0)" xlink:href="#Z"/><use transform="matrix(0.07469135802469135,0,0,0.07469135802469135,7.469135802469134,0)" xlink:href="#U"/></g><g id="M"><use transform="matrix(0.07469135802469135,0,0,0.07469135802469135,0,0)" xlink:href="#X"/><use transform="matrix(0.07469135802469135,0,0,0.07469135802469135,10.456790123456788,0)" xlink:href="#ao"/><use transform="matrix(0.07469135802469135,0,0,0.07469135802469135,23.90123456790123,0)" xlink:href="#Y"/><use transform="matrix(0.07469135802469135,0,0,0.07469135802469135,35.777160493827154,0)" xlink:href="#ai"/><use transform="matrix(0.07469135802469135,0,0,0.07469135802469135,47.65308641975308,0)" xlink:href="#am"/><use transform="matrix(0.07469135802469135,0,0,0.07469135802469135,55.12222222222221,0)" xlink:href="#ah"/><use transform="matrix(0.07469135802469135,0,0,0.07469135802469135,68.56666666666666,0)" xlink:href="#W"/></g></defs></g></svg>