<svg xmlns="http://www.w3.org/2000/svg" xmlns:xlink="http://www.w3.org/1999/xlink" xmlns:lucid="lucid" width="1331" height="1065"><g transform="translate(-211 -147)" lucid:page-tab-id="0_0"><path d="M0 0h1760v1360H0z" fill="#fff"/><path d="M918 182.64c17.67 0 32 17.9 32 40s-14.33 40-32 40h-96c-17.67 0-32-17.9-32-40s14.33-40 32-40z" stroke="#000" fill="#ffbbb1"/><use xlink:href="#a" transform="matrix(1,0,0,1,795,187.64440299465787) translate(13.304938271604954 40.37777777777778)"/><use xlink:href="#b" transform="matrix(1,0,0,1,795,187.64440299465787) translate(64.84197530864199 40.37777777777778)"/><path d="M870.5 340.47h-1v-14.34h1zm0-46.6h-1v-30.23h1z" fill="#333"/><path d="M870.5 263.66h-1v-.52h1zM870 355.24l-4.64-14.27h9.28z" fill="#333"/><path d="M870 356.86l-5.32-16.4h10.64zm-3.95-15.4l3.95 12.16 3.95-12.15z" fill="#333"/><use xlink:href="#c" transform="matrix(1,0,0,1,852.1487654320988,293.8666666666667) translate(0.004999999999999005 21.511111111111106)"/><path d="M918 357.36c17.67 0 32 17.9 32 40s-14.33 40-32 40h-96c-17.67 0-32-17.9-32-40s14.33-40 32-40z" stroke="#333" fill="#ffbbb1"/><use xlink:href="#d" transform="matrix(1,0,0,1,795,362.35559700534213) translate(4.416666666666686 40.37777777777778)"/><use xlink:href="#e" transform="matrix(1,0,0,1,795,362.35559700534213) translate(57.44753086419754 40.37777777777778)"/><path d="M717 397.86h-33.98v-1H717zm72 0h-36.3v-1H789zM789.5 397.35l.02.5H789v-1h.53zM682.52 402l-14.26-4.64 14.26-4.64z" fill="#333"/><path d="M683.02 402.68l-16.38-5.32 16.38-5.33zm-13.14-5.32l12.14 3.94v-7.9z" fill="#333"/><use xlink:href="#c" transform="matrix(1,0,0,1,716.999375188175,381.2222636720088) translate(0.004999999999999005 21.511111111111106)"/><path d="M583.6 342.16c3.53-2.66 9.27-2.66 12.8 0l67.2 50.4c3.53 2.65 3.53 6.94 0 9.6l-67.2 50.4c-3.53 2.65-9.27 2.65-12.8 0l-67.2-50.4c-3.53-2.66-3.53-6.95 0-9.6z" stroke="#333" fill="#99d2f2"/><use xlink:href="#f" transform="matrix(1,0,0,1,515,342.35559700534213) translate(43.70432098765433 60.37777777777778)"/><path d="M918 517.36c17.67 0 32 17.9 32 40s-14.33 40-32 40h-96c-17.67 0-32-17.9-32-40s14.33-40 32-40z" stroke="#333" fill="#ffbbb1"/><use xlink:href="#g" transform="matrix(1,0,0,1,795,522.3555970053421) translate(43.66697530864198 40.37777777777778)"/><path d="M658.24 644.4c2.07-3.88 7.34-7.04 11.76-7.04h80c4.42 0 9.7 3.16 11.76 7.05l24.48 45.9c2.07 3.9 2.07 10.22 0 14.1l-24.48 45.9c-2.07 3.9-7.34 7.06-11.76 7.06h-80c-4.42 0-9.7-3.16-11.76-7.06l-24.48-45.9c-2.07-3.88-2.07-10.2 0-14.1z" stroke="#333" fill="#ffdf71"/><use xlink:href="#h" transform="matrix(1,0,0,1,635,642.3555970053421) translate(34.81604938271606 60.37777777777778)"/><path d="M978.24 643.9c2.07-3.9 7.34-7.07 11.76-7.07h80c4.42 0 9.7 3.16 11.76 7.06l24.48 45.87c2.07 3.9 2.07 10.22 0 14.12l-24.48 45.87c-2.07 3.9-7.34 7.06-11.76 7.06h-80c-4.42 0-9.7-3.16-11.76-7.06l-24.48-45.88c-2.07-3.9-2.07-10.23 0-14.13z" stroke="#333" fill="#ffdf71"/><use xlink:href="#i" transform="matrix(1,0,0,1,955,641.8299478084277) translate(39.1854938271605 60.37777777777778)"/><path d="M870.5 500.47h-1v-14.1h1zm0-46.36h-1v-15.74h1zM870.5 438.37h-1v-.5h1zM870 515.24l-4.64-14.27h9.28z" fill="#333"/><path d="M870 516.86l-5.32-16.4h10.64zm-3.95-15.4l3.95 12.16 3.95-12.15z" fill="#333"/><use xlink:href="#j" transform="matrix(1,0,0,1,853.6052469135802,454.1069608435466) translate(0.004999999999999005 21.511111111111106)"/><path d="M789 557.36h-67c-6.63 0-12 5.37-12 12v51.1" stroke="#333" fill="none"/><path d="M789.5 557.35l.02.5H789v-1h.53z" fill="#333"/><path d="M710 635.24l-4.64-14.27h9.27z" stroke="#333" fill="#333"/><path d="M951 557.36h66.47c6.63 0 12 5.37 12 12v50.6" stroke="#333" fill="none"/><path d="M951 557.86h-.53l.03-.5-.02-.5h.53z" fill="#333"/><path d="M1029.47 634.7l-4.63-14.25h9.27z" stroke="#333" fill="#333"/><path d="M538 817.36c17.67 0 32 17.9 32 40s-14.33 40-32 40h-96c-17.67 0-32-17.9-32-40s14.33-40 32-40z" stroke="#333" fill="#ffbbb1"/><use xlink:href="#k" transform="matrix(1,0,0,1,415,822.3555970053421) translate(51.845679012345684 24.244444444444447)"/><use xlink:href="#l" transform="matrix(1,0,0,1,415,822.3555970053421) translate(23.425617283950622 56.511111111111106)"/><path d="M718 957.36c17.67 0 32 17.9 32 40s-14.33 40-32 40h-96c-17.67 0-32-17.9-32-40s14.33-40 32-40z" stroke="#333" fill="#ffbbb1"/><use xlink:href="#d" transform="matrix(1,0,0,1,595,962.3555970053421) translate(11.811111111111131 40.37777777777778)"/><use xlink:href="#m" transform="matrix(1,0,0,1,595,962.3555970053421) translate(64.84197530864199 40.37777777777778)"/><path d="M323.6 1062.16c3.53-2.66 9.27-2.66 12.8 0l67.2 50.4c3.53 2.65 3.53 6.94 0 9.6l-67.2 50.4c-3.53 2.65-9.27 2.65-12.8 0l-67.2-50.4c-3.53-2.66-3.53-6.95 0-9.6z" stroke="#333" fill="#99d2f2"/><use xlink:href="#n" transform="matrix(1,0,0,1,255,1062.3555970053421) translate(33.247530864197536 60.37777777777778)"/><path d="M543.6 1062.16c3.53-2.66 9.27-2.66 12.8 0l67.2 50.4c3.53 2.65 3.53 6.94 0 9.6l-67.2 50.4c-3.53 2.65-9.27 2.65-12.8 0l-67.2-50.4c-3.53-2.66-3.53-6.95 0-9.6z" stroke="#333" fill="#99d2f2"/><use xlink:href="#o" transform="matrix(1,0,0,1,475,1062.3555970053421) translate(6.0972222222222285 60.37777777777778)"/><use xlink:href="#p" transform="matrix(1,0,0,1,475,1062.3555970053421) translate(93.18734567901234 60.37777777777778)"/><path d="M783.6 1062.16c3.53-2.66 9.27-2.66 12.8 0l67.2 50.4c3.53 2.65 3.53 6.94 0 9.6l-67.2 50.4c-3.53 2.65-9.27 2.65-12.8 0l-67.2-50.4c-3.53-2.66-3.53-6.95 0-9.6z" stroke="#333" fill="#99d2f2"/><use xlink:href="#q" transform="matrix(1,0,0,1,715,1062.3555970053421) translate(4.976851851851876 60.37777777777778)"/><use xlink:href="#r" transform="matrix(1,0,0,1,715,1062.3555970053421) translate(11.699074074074097 60.37777777777778)"/><use xlink:href="#s" transform="matrix(1,0,0,1,715,1062.3555970053421) translate(103.19598765432099 60.37777777777778)"/><path d="M631.27 697.36H502c-6.63 0-12 5.37-12 12v91.1" stroke="#333" fill="none"/><path d="M631.82 697.86h-.56v-1h.47z" fill="#333"/><path d="M490 815.24l-4.64-14.27h9.28z" stroke="#333" fill="#333"/><path d="M330.5 1043.4h-1V934.94h1zM409 857.85h-66.97l-3 .4-2.77 1.13-2.4 1.83-1.82 2.4-1.14 2.74-.4 3.02v33.28h-1v-33.36l.42-3.2 1.24-3 2-2.6 2.6-2 3-1.24 3.2-.42H409zM409.5 857.35l.02.5H409v-1h.53zM330 1058.15l-4.64-14.26h9.28z" fill="#333"/><path d="M330 1059.77l-5.32-16.38h10.64zm-3.95-15.38l3.95 12.13 3.95-12.14z" fill="#333"/><use xlink:href="#c" transform="matrix(1,0,0,1,312.1487654320988,902.6792697376336) translate(0.004999999999999005 21.511111111111106)"/><path d="M670.5 940.47h-1v-9h1zm-9.26-83.2l3 1.25 2.6 2 2 2.6 1.24 3 .42 3.2v29.88h-1v-29.8l-.4-3.03-1.14-2.75-1.83-2.4-2.4-1.83-2.75-1.15-3-.4H571v-1h87.03z" fill="#333"/><path d="M571 857.86h-.53l.03-.5-.02-.5h.53zM670 955.24l-4.64-14.27h9.28z" fill="#333"/><path d="M670 956.86l-5.32-16.4h10.64zm-3.95-15.4l3.95 12.16 3.95-12.15z" fill="#333"/><use xlink:href="#j" transform="matrix(1,0,0,1,653.6052469135802,899.1967301353845) translate(0.004999999999999005 21.511111111111106)"/><path d="M589 997.36h-27c-6.63 0-12 5.37-12 12v34.03" stroke="#333" fill="none"/><path d="M589.5 997.35l.02.5H589v-1h.53z" fill="#333"/><path d="M550 1058.15l-4.64-14.26h9.28z" stroke="#333" fill="#333"/><path d="M751 997.36h27c6.63 0 12 5.37 12 12v34.03" stroke="#333" fill="none"/><path d="M751 997.86h-.53l.03-.5-.02-.5h.53z" fill="#333"/><path d="M790 1058.15l-4.64-14.26h9.28z" stroke="#333" fill="#333"/><path d="M1218 817.1c17.67 0 32 17.9 32 40 0 22.08-14.33 40-32 40h-96c-17.67 0-32-17.92-32-40 0-22.1 14.33-40 32-40z" stroke="#333" fill="#ffbbb1"/><use xlink:href="#k" transform="matrix(1,0,0,1,1095,822.0927724068849) translate(51.845679012345684 24.244444444444447)"/><use xlink:href="#l" transform="matrix(1,0,0,1,1095,822.0927724068849) translate(23.425617283950622 56.511111111111106)"/><path d="M1358 957.36c17.67 0 32 17.9 32 40s-14.33 40-32 40h-96c-17.67 0-32-17.9-32-40s14.33-40 32-40z" stroke="#333" fill="#ffbbb1"/><use xlink:href="#d" transform="matrix(1,0,0,1,1235,962.3555970053421) translate(11.811111111111131 40.37777777777778)"/><use xlink:href="#m" transform="matrix(1,0,0,1,1235,962.3555970053421) translate(64.84197530864199 40.37777777777778)"/><path d="M983.6 1062.16c3.53-2.66 9.27-2.66 12.8 0l67.2 50.4c3.53 2.65 3.53 6.94 0 9.6l-67.2 50.4c-3.53 2.65-9.27 2.65-12.8 0l-67.2-50.4c-3.53-2.66-3.53-6.95 0-9.6z" stroke="#333" fill="#99d2f2"/><use xlink:href="#n" transform="matrix(1,0,0,1,915,1062.3555970053421) translate(33.247530864197536 60.37777777777778)"/><path d="M1183.6 1062.16c3.53-2.66 9.27-2.66 12.8 0l67.2 50.4c3.53 2.65 3.53 6.94 0 9.6l-67.2 50.4c-3.53 2.65-9.27 2.65-12.8 0l-67.2-50.4c-3.53-2.66-3.53-6.95 0-9.6z" stroke="#333" fill="#99d2f2"/><use xlink:href="#t" transform="matrix(1,0,0,1,1115,1062.3555970053421) translate(1.5783950617284006 60.37777777777778)"/><use xlink:href="#p" transform="matrix(1,0,0,1,1115,1062.3555970053421) translate(97.70617283950617 60.37777777777778)"/><path d="M1423.6 1062.16c3.53-2.66 9.27-2.66 12.8 0l67.2 50.4c3.53 2.65 3.53 6.94 0 9.6l-67.2 50.4c-3.53 2.65-9.27 2.65-12.8 0l-67.2-50.4c-3.53-2.66-3.53-6.95 0-9.6z" stroke="#333" fill="#99d2f2"/><use xlink:href="#q" transform="matrix(1,0,0,1,1355,1062.3555970053421) translate(4.976851851851876 60.37777777777778)"/><use xlink:href="#r" transform="matrix(1,0,0,1,1355,1062.3555970053421) translate(11.699074074074097 60.37777777777778)"/><use xlink:href="#s" transform="matrix(1,0,0,1,1355,1062.3555970053421) translate(103.19598765432099 60.37777777777778)"/><path d="M1108.73 696.83H1158c6.63 0 12 5.37 12 12v91.38" stroke="#333" fill="none"/><path d="M1108.74 697.33h-.47l-.1-1h.57z" fill="#333"/><path d="M1170 814.97l-4.64-14.26h9.28z" stroke="#333" fill="#333"/><path d="M990.5 1043.4h-1V924.8h1zm98.5-185.8h-86.97l-3 .4-2.77 1.13-2.4 1.83-1.82 2.4-1.14 2.75-.4 3.03v23.42h-1v-23.5l.42-3.2 1.24-3 2-2.6 2.6-2 3-1.24 3.2-.4H1089z" fill="#333"/><path d="M1089.5 857.1l.02.5h-.53v-1h.53zM990 1058.15l-4.64-14.26h9.28z" fill="#333"/><path d="M990 1059.77l-5.32-16.38h10.64zm-3.95-15.38l3.95 12.13 3.95-12.14z" fill="#333"/><use xlink:href="#c" transform="matrix(1,0,0,1,972.1487654320988,892.547857438405) translate(0.004999999999999005 21.511111111111106)"/><path d="M1310.5 940.47h-1V919.8h1zm-9.26-83.46l3 1.26 2.6 2 2 2.6 1.24 3 .42 3.2v18.46h-1v-18.4l-.4-3-1.14-2.77-1.83-2.4-2.4-1.82L1301 858l-3-.4H1251v-1h47.03z" fill="#333"/><path d="M1251 857.6h-.53l.03-.5-.02-.5h.53zM1310 955.24l-4.64-14.27h9.28z" fill="#333"/><path d="M1310 956.86l-5.32-16.4h10.64zm-3.95-15.4l3.95 12.16 3.95-12.15z" fill="#333"/><g><use xlink:href="#j" transform="matrix(1,0,0,1,1293.6052469135802,887.5202819646533) translate(0.004999999999999005 21.511111111111106)"/></g><path d="M1229 997.36h-27c-6.63 0-12 5.37-12 12v34.03" stroke="#333" fill="none"/><path d="M1229.5 997.35l.02.5h-.53v-1h.53z" fill="#333"/><path d="M1190 1058.15l-4.64-14.26h9.28z" stroke="#333" fill="#333"/><path d="M1391 997.36h27c6.63 0 12 5.37 12 12v34.03" stroke="#333" fill="none"/><path d="M1391 997.86h-.53l.03-.5-.02-.5h.53z" fill="#333"/><path d="M1430 1058.15l-4.64-14.26h9.28z" stroke="#333" fill="#333"/><defs><path d="M-3 0l3-13 31-5 35-200-29-5 2-13h112l-2 13-31 5-16 87h86l16-87-30-5 2-13h113l-2 13-31 5-36 200 30 5-2 13H135l2-13 31-5 17-94H99L82-18l30 5-2 13H-3" id="u"/><path d="M4-56c-1-80 62-132 143-106 7-3 13-7 24-6L145-16l19 6-2 10h-61v-24C89-11 75 4 51 4 17 4 5-22 4-56zm116-90c-48-23-67 38-70 84-2 36 29 52 46 24 2-3 5-6 7-9" id="v"/><path d="M108-141c-17-26-77-2-45 26 22 19 57 24 59 63C125 7 47 13-2-6l8-46h12c-1 24 9 40 34 39 18-1 30-9 31-27-10-38-66-30-66-80 0-55 66-55 112-44l-8 42h-11" id="w"/><g id="a"><use transform="matrix(0.07469135802469135,0,0,0.07469135802469135,0,0)" xlink:href="#u"/><use transform="matrix(0.07469135802469135,0,0,0.07469135802469135,20.913580246913575,0)" xlink:href="#v"/><use transform="matrix(0.07469135802469135,0,0,0.07469135802469135,34.35802469135802,0)" xlink:href="#w"/></g><path d="M175-182c0-29-25-37-58-34l-15 82c43 3 73-9 73-48zm-3 111c0-40-32-46-73-44L82-19c49 4 90-1 90-52zm53 0C225 23 93-3-3 0l2-13 31-5 35-200-29-5 2-13c75 5 189-21 189 52 0 37-25 53-59 58 33 3 57 21 57 55" id="x"/><path d="M58-16l21 4-2 12H8l41-234-16-4 2-12h64" id="y"/><path d="M120-226c12 13 19 47-13 43-9-4-16-11-16-24 0-43 33-66 76-66 45 0 75 22 75 67 0 63-68 79-66 150h-17c-8-69 43-89 50-150s-82-72-89-20zM142-8c0-13 12-24 25-24s24 11 24 24-11 25-24 25c-14 0-25-11-25-25" id="z"/><g id="b"><use transform="matrix(0.07469135802469135,0,0,0.07469135802469135,0,0)" xlink:href="#x"/><use transform="matrix(0.07469135802469135,0,0,0.07469135802469135,17.925925925925924,0)" xlink:href="#v"/><use transform="matrix(0.07469135802469135,0,0,0.07469135802469135,31.370370370370367,0)" xlink:href="#y"/><use transform="matrix(0.07469135802469135,0,0,0.07469135802469135,38.8395061728395,0)" xlink:href="#y"/><use transform="matrix(0.07469135802469135,0,0,0.07469135802469135,46.30864197530863,0)" xlink:href="#z"/></g><path fill="#333" d="M137-96l-14 78 37 5-2 13H31l2-13 38-5 14-77-41-123-26-5 3-13h112l-3 13-32 5 31 97 64-97-28-5 2-13h81l-3 13-26 5" id="A"/><path fill="#333" d="M8-58c3-72 59-136 130-101 9 5 14 13 14 25 0 48-53 54-95 64-3 26 4 52 31 52 20 0 33-9 45-17l8 11C108 13 5 18 8-58zm101-78c-5-28-28-9-35 5-6 12-12 25-14 42 27-4 47-18 49-47" id="B"/><path fill="#333" d="M108-141c-17-26-77-2-45 26 22 19 57 24 59 63C125 7 47 13-2-6l8-46h12c-1 24 9 40 34 39 18-1 30-9 31-27-10-38-66-30-66-80 0-55 66-55 112-44l-8 42h-11" id="C"/><g id="c"><use transform="matrix(0.07469135802469135,0,0,0.07469135802469135,0,0)" xlink:href="#A"/><use transform="matrix(0.07469135802469135,0,0,0.07469135802469135,13.36975308641975,0)" xlink:href="#B"/><use transform="matrix(0.07469135802469135,0,0,0.07469135802469135,25.245679012345676,0)" xlink:href="#C"/></g><path fill="#333" d="M67-92c-6 74 69 96 125 60l13-39h15l-11 60C128 16 12 10 12-93c0-122 110-166 231-136l-9 59h-15v-34c-11-9-30-16-51-16-69 4-96 57-101 128" id="D"/><path fill="#333" d="M4-56c-1-80 62-132 143-106 7-3 13-7 24-6L145-16l19 6-2 10h-61v-24C89-11 75 4 51 4 17 4 5-22 4-56zm116-90c-48-23-67 38-70 84-2 36 29 52 46 24 2-3 5-6 7-9" id="E"/><path fill="#333" d="M144-170c70 0 21 104 18 154l21 4-3 12h-68l22-127c-7-34-45-7-53 8C63-87 64-39 54 0H7l26-149-15-5 2-11h59l-2 31c16-20 34-36 67-36" id="F"/><g id="d"><use transform="matrix(0.07469135802469135,0,0,0.07469135802469135,0,0)" xlink:href="#D"/><use transform="matrix(0.07469135802469135,0,0,0.07469135802469135,17.925925925925924,0)" xlink:href="#E"/><use transform="matrix(0.07469135802469135,0,0,0.07469135802469135,31.370370370370367,0)" xlink:href="#F"/></g><path fill="#333" d="M128-140c85 34 48 161-52 144C49 5 24-2 7-9l11-63h15v38c24 36 125 19 95-37-22-41-94-36-94-101 0-71 88-73 151-59l-10 56h-15l-2-34c-26-23-99-7-75 36 9 16 30 23 45 33" id="G"/><path fill="#333" d="M135-24C103 15 5 16 5-58c0-84 66-131 150-104l-9 51h-13c0-23-2-44-28-41-39 5-49 47-53 92-4 49 52 49 76 25" id="H"/><path fill="#333" d="M75-14c36-8 43-53 45-96 1-23-4-40-22-42-35 9-46 53-46 96 0 21 6 40 23 42zm93-86C168-39 132 4 71 4 29 4 6-22 6-66c0-62 36-104 96-104 43 0 66 27 66 70" id="I"/><path fill="#333" d="M77-130c13-23 31-45 66-38l-10 59h-10l-8-24c-22 1-32 14-42 28L55 0H7l27-149-21-5 2-11h66" id="J"/><path fill="#333" d="M120-226c12 13 19 47-13 43-9-4-16-11-16-24 0-43 33-66 76-66 45 0 75 22 75 67 0 63-68 79-66 150h-17c-8-69 43-89 50-150s-82-72-89-20zM142-8c0-13 12-24 25-24s24 11 24 24-11 25-24 25c-14 0-25-11-25-25" id="K"/><g id="e"><use transform="matrix(0.07469135802469135,0,0,0.07469135802469135,0,0)" xlink:href="#G"/><use transform="matrix(0.07469135802469135,0,0,0.07469135802469135,14.938271604938269,0)" xlink:href="#H"/><use transform="matrix(0.07469135802469135,0,0,0.07469135802469135,26.81419753086419,0)" xlink:href="#I"/><use transform="matrix(0.07469135802469135,0,0,0.07469135802469135,40.258641975308635,0)" xlink:href="#J"/><use transform="matrix(0.07469135802469135,0,0,0.07469135802469135,50.71543209876541,0)" xlink:href="#B"/><use transform="matrix(0.07469135802469135,0,0,0.07469135802469135,62.591358024691345,0)" xlink:href="#K"/></g><g id="f"><use transform="matrix(0.07469135802469135,0,0,0.07469135802469135,0,0)" xlink:href="#G"/><use transform="matrix(0.07469135802469135,0,0,0.07469135802469135,14.938271604938269,0)" xlink:href="#H"/><use transform="matrix(0.07469135802469135,0,0,0.07469135802469135,26.81419753086419,0)" xlink:href="#I"/><use transform="matrix(0.07469135802469135,0,0,0.07469135802469135,40.258641975308635,0)" xlink:href="#J"/><use transform="matrix(0.07469135802469135,0,0,0.07469135802469135,50.71543209876541,0)" xlink:href="#B"/></g><path fill="#333" d="M130 0h-8L83-204 50-18l31 5-2 13H-5l2-13 31-5 36-200-30-5 3-13h86l29 154 84-154h94l-2 13-31 5-36 200 30 5-2 13H173l2-13 35-5 32-186" id="L"/><path fill="#333" d="M98-25C87-11 72 4 49 4 17 4 5-21 4-54c-1-72 43-130 119-111l11-69-28-4 2-12h76L143-15l17 4-2 11h-58zm20-119c-46-28-68 37-68 82 0 34 24 52 43 25 18-25 15-73 25-107" id="M"/><g id="g"><use transform="matrix(0.07469135802469135,0,0,0.07469135802469135,0,0)" xlink:href="#L"/><use transform="matrix(0.07469135802469135,0,0,0.07469135802469135,23.90123456790123,0)" xlink:href="#I"/><use transform="matrix(0.07469135802469135,0,0,0.07469135802469135,37.34567901234567,0)" xlink:href="#M"/><use transform="matrix(0.07469135802469135,0,0,0.07469135802469135,50.79012345679011,0)" xlink:href="#B"/></g><path fill="#333" d="M83-20c80 9 114-41 114-116 0-55-25-82-80-80zm169-119C251-34 178 11 65 0H-3l2-13 32-5 35-200-29-5 2-13c105-2 214-6 213 97" id="N"/><path fill="#333" d="M39-147H11l2-12 29-7c4-61 39-99 108-84l-7 39h-11c4-19-15-32-27-15-10 14-11 41-16 61h37l-3 18H86L47 77H0" id="O"/><g id="h"><use transform="matrix(0.07469135802469135,0,0,0.07469135802469135,0,0)" xlink:href="#N"/><use transform="matrix(0.07469135802469135,0,0,0.07469135802469135,19.34506172839506,0)" xlink:href="#B"/><use transform="matrix(0.07469135802469135,0,0,0.07469135802469135,31.220987654320982,0)" xlink:href="#O"/><use transform="matrix(0.07469135802469135,0,0,0.07469135802469135,40.109259259259254,0)" xlink:href="#B"/><use transform="matrix(0.07469135802469135,0,0,0.07469135802469135,51.98518518518517,0)" xlink:href="#F"/><use transform="matrix(0.07469135802469135,0,0,0.07469135802469135,66.92345679012344,0)" xlink:href="#M"/></g><path fill="#333" d="M53-13L51 0h-70l3-13 18-5 117-220h43l44 220 19 5-2 13h-97l3-13 24-5-11-61H59L27-18zm68-184L69-98h70" id="P"/><path fill="#333" d="M62-57c-4 16-6 39 13 38 8 0 13-3 20-4l4 12C72 11 3 12 13-44l18-103H11l2-11 25-7 24-38h26l-7 38h28l-3 18H78" id="Q"/><path fill="#333" d="M68-89l62-61-15-4 2-11h60l-2 11c-29 5-39 30-59 44l39 94 14 4-1 12h-56L83-80 64-67 52 0H5l41-234-16-4 2-12h64" id="R"/><g id="i"><use transform="matrix(0.07469135802469135,0,0,0.07469135802469135,0,0)" xlink:href="#P"/><use transform="matrix(0.07469135802469135,0,0,0.07469135802469135,17.925925925925924,0)" xlink:href="#Q"/><use transform="matrix(0.07469135802469135,0,0,0.07469135802469135,25.395061728395056,0)" xlink:href="#Q"/><use transform="matrix(0.07469135802469135,0,0,0.07469135802469135,32.86419753086419,0)" xlink:href="#E"/><use transform="matrix(0.07469135802469135,0,0,0.07469135802469135,46.30864197530863,0)" xlink:href="#H"/><use transform="matrix(0.07469135802469135,0,0,0.07469135802469135,58.18456790123456,0)" xlink:href="#R"/></g><path fill="#333" d="M215-218l-30-5 2-13h84l-3 13-31 5L199 0h-20L84-195 52-18l31 5-2 13H-3l2-13 31-5 35-200-29-5 2-13h76l77 157" id="S"/><g id="j"><use transform="matrix(0.07469135802469135,0,0,0.07469135802469135,0,0)" xlink:href="#S"/><use transform="matrix(0.07469135802469135,0,0,0.07469135802469135,19.34506172839506,0)" xlink:href="#I"/></g><g id="k"><use transform="matrix(0.07469135802469135,0,0,0.07469135802469135,0,0)" xlink:href="#D"/><use transform="matrix(0.07469135802469135,0,0,0.07469135802469135,17.925925925925924,0)" xlink:href="#E"/><use transform="matrix(0.07469135802469135,0,0,0.07469135802469135,31.370370370370367,0)" xlink:href="#F"/></g><path fill="#333" d="M59-16l21 4-2 12H9l27-149-16-5 1-11h65zm39-207c0 38-54 32-54 0 0-16 10-27 28-27 17 0 26 11 26 27" id="T"/><path fill="#333" d="M54-22c43 30 69-33 69-81 0-34-25-52-44-25-18 25-15 72-25 106zm115-89C172-18 95 27 5-8l40-226-17-4 2-12h65L74-140c11-15 26-30 49-30 33 0 45 24 46 59" id="U"/><path fill="#333" d="M58-16l21 4-2 12H8l41-234-16-4 2-12h64" id="V"/><g id="l"><use transform="matrix(0.07469135802469135,0,0,0.07469135802469135,0,0)" xlink:href="#M"/><use transform="matrix(0.07469135802469135,0,0,0.07469135802469135,13.444444444444443,0)" xlink:href="#J"/><use transform="matrix(0.07469135802469135,0,0,0.07469135802469135,23.90123456790123,0)" xlink:href="#T"/><use transform="matrix(0.07469135802469135,0,0,0.07469135802469135,31.370370370370367,0)" xlink:href="#U"/><use transform="matrix(0.07469135802469135,0,0,0.07469135802469135,44.81481481481481,0)" xlink:href="#U"/><use transform="matrix(0.07469135802469135,0,0,0.07469135802469135,58.25925925925925,0)" xlink:href="#V"/><use transform="matrix(0.07469135802469135,0,0,0.07469135802469135,65.72839506172839,0)" xlink:href="#B"/><use transform="matrix(0.07469135802469135,0,0,0.07469135802469135,77.60432098765432,0)" xlink:href="#K"/></g><path fill="#333" d="M124-170c31 0 45 25 45 59C170-40 123 20 52-2l-9 63 28 4-2 12h-95l2-12 19-4 37-211-17-5 2-10h61l-1 24c11-15 25-29 47-29zM57-22c45 27 66-36 66-81 0-26-13-53-34-33-5 4-10 9-15 16" id="W"/><g id="m"><use transform="matrix(0.07469135802469135,0,0,0.07469135802469135,0,0)" xlink:href="#W"/><use transform="matrix(0.07469135802469135,0,0,0.07469135802469135,13.444444444444443,0)" xlink:href="#E"/><use transform="matrix(0.07469135802469135,0,0,0.07469135802469135,26.888888888888886,0)" xlink:href="#C"/><use transform="matrix(0.07469135802469135,0,0,0.07469135802469135,37.34567901234567,0)" xlink:href="#C"/><use transform="matrix(0.07469135802469135,0,0,0.07469135802469135,47.802469135802454,0)" xlink:href="#K"/></g><g id="n"><use transform="matrix(0.07469135802469135,0,0,0.07469135802469135,0,0)" xlink:href="#N"/><use transform="matrix(0.07469135802469135,0,0,0.07469135802469135,19.34506172839506,0)" xlink:href="#J"/><use transform="matrix(0.07469135802469135,0,0,0.07469135802469135,29.801851851851847,0)" xlink:href="#T"/><use transform="matrix(0.07469135802469135,0,0,0.07469135802469135,37.27098765432098,0)" xlink:href="#U"/><use transform="matrix(0.07469135802469135,0,0,0.07469135802469135,50.715432098765426,0)" xlink:href="#U"/><use transform="matrix(0.07469135802469135,0,0,0.07469135802469135,64.15987654320986,0)" xlink:href="#V"/><use transform="matrix(0.07469135802469135,0,0,0.07469135802469135,71.629012345679,0)" xlink:href="#B"/></g><g id="o"><use transform="matrix(0.07469135802469135,0,0,0.07469135802469135,0,0)" xlink:href="#N"/><use transform="matrix(0.07469135802469135,0,0,0.07469135802469135,19.34506172839506,0)" xlink:href="#B"/><use transform="matrix(0.07469135802469135,0,0,0.07469135802469135,31.220987654320982,0)" xlink:href="#O"/><use transform="matrix(0.07469135802469135,0,0,0.07469135802469135,40.109259259259254,0)" xlink:href="#B"/><use transform="matrix(0.07469135802469135,0,0,0.07469135802469135,51.98518518518517,0)" xlink:href="#F"/><use transform="matrix(0.07469135802469135,0,0,0.07469135802469135,66.92345679012344,0)" xlink:href="#M"/></g><path fill="#333" d="M113-112c63 10 84-104 17-104h-12L99-112h14zm109-61c0 66-54 85-126 81L82-18l39 5-2 13H0l2-13 28-5 36-200-30-5 2-13c79 3 184-17 184 63" id="X"/><g id="p"><use transform="matrix(0.07469135802469135,0,0,0.07469135802469135,0,0)" xlink:href="#X"/><use transform="matrix(0.07469135802469135,0,0,0.07469135802469135,16.357407407407404,0)" xlink:href="#E"/><use transform="matrix(0.07469135802469135,0,0,0.07469135802469135,29.801851851851847,0)" xlink:href="#C"/><use transform="matrix(0.07469135802469135,0,0,0.07469135802469135,40.258641975308635,0)" xlink:href="#C"/></g><path fill="#333" d="M223-176c0 42-25 62-58 71l36 87 25 5-2 13h-70l-37-100H97L82-18l30 5-2 13H-1l3-13 28-5 36-200-30-5 3-13c77 4 183-20 184 60zm-51 3c1-33-18-46-54-43l-18 97c43 2 70-15 72-54" id="Y"/><path fill="#333" d="M118-165c22 0 57-7 42 26-24 52-60 95-88 143H50L14-150l-11-4 2-11h53L84-50c15-29 42-50 47-87 2-11-6-15-15-17" id="Z"/><g id="r"><use transform="matrix(0.07469135802469135,0,0,0.07469135802469135,0,0)" xlink:href="#Y"/><use transform="matrix(0.07469135802469135,0,0,0.07469135802469135,17.925925925925924,0)" xlink:href="#B"/><use transform="matrix(0.07469135802469135,0,0,0.07469135802469135,29.801851851851847,0)" xlink:href="#H"/><use transform="matrix(0.07469135802469135,0,0,0.07469135802469135,41.67777777777777,0)" xlink:href="#B"/><use transform="matrix(0.07469135802469135,0,0,0.07469135802469135,53.55370370370369,0)" xlink:href="#T"/><use transform="matrix(0.07469135802469135,0,0,0.07469135802469135,61.02283950617282,0)" xlink:href="#Z"/><use transform="matrix(0.07469135802469135,0,0,0.07469135802469135,72.89876543209874,0)" xlink:href="#B"/></g><g id="s"><use transform="matrix(0.07469135802469135,0,0,0.07469135802469135,0,0)" xlink:href="#U"/><use transform="matrix(0.07469135802469135,0,0,0.07469135802469135,13.444444444444443,0)" xlink:href="#E"/><use transform="matrix(0.07469135802469135,0,0,0.07469135802469135,26.888888888888886,0)" xlink:href="#V"/><use transform="matrix(0.07469135802469135,0,0,0.07469135802469135,34.35802469135802,0)" xlink:href="#V"/></g><path fill="#333" d="M216-12C132 16 12 13 12-92c0-124 113-169 234-135l-10 54h-15l1-31c-14-10-32-18-57-16-68 5-95 58-98 132-3 60 43 88 99 66l12-67-29-6 2-12h105l-2 12-24 6" id="aa"/><g id="t"><use transform="matrix(0.07469135802469135,0,0,0.07469135802469135,0,0)" xlink:href="#aa"/><use transform="matrix(0.07469135802469135,0,0,0.07469135802469135,19.34506172839506,0)" xlink:href="#B"/><use transform="matrix(0.07469135802469135,0,0,0.07469135802469135,31.220987654320982,0)" xlink:href="#F"/><use transform="matrix(0.07469135802469135,0,0,0.07469135802469135,46.15925925925925,0)" xlink:href="#B"/><use transform="matrix(0.07469135802469135,0,0,0.07469135802469135,58.03518518518517,0)" xlink:href="#J"/><use transform="matrix(0.07469135802469135,0,0,0.07469135802469135,68.49197530864195,0)" xlink:href="#E"/><use transform="matrix(0.07469135802469135,0,0,0.07469135802469135,81.93641975308638,0)" xlink:href="#V"/></g></defs></g></svg>